# xmcd
#
# Track frame offsets:
#	150
#	19337
#	32335
#	43452
#	58377
#	80127
#	93657
#	109960
#	131210
#	142842
#	156992
#	176827
#	191252
#	206755
#	224512
#	248412
#	269525
#	285320
#	297600
#	309607
#
# Disc length: 4337 seconds
#
# Revision: 1
# Processed by: cddbd v1.5.1PL0 Copyright (c) Steve Scherf et al.
# Submitted via: audiograbber 1.83.01
#
DISCID=4110ef14
DTITLE=Various Artist - Fan Fair ´93
DYEAR=1993
DGENRE=Country
TTITLE0=Highway Shadows - Hillibilly Airport
TTITLE1=Beifahrer - Beifahrer
TTITLE2=Twin Peaks - Dream Lover
TTITLE3=Canada Country Cowboys - Ashes of Love
TTITLE4=Hillbillies - Freunde
TTITLE5=Gary Steel - Sechs Tage auf dem Highway
TTITLE6=Waymore Clayton and Montana Band - Music-City-Blues
TTITLE7=Western Eagles - Kamerad
TTITLE8=Highway Shadows - Blue River Cajun Music
TTITLE9=Hillbillies - Thank God for the Radio
TTITLE10=Waymore Clayton and Montana Band - Back to Back
TTITLE11=Greenfields - San Bernadino
TTITLE12=Western Eagles - Last Time
TTITLE13=Canada Country Cowboys - Lo Siento Mi Vida
TTITLE14=Andy Glandt and Greenhorn - Sonntagmorgen
TTITLE15=Hillbillies - S´ Schwäbische Eisabähnle
TTITLE16=Silverline - Drei mal Täglich
TTITLE17=Twin Peaks - We go Together
TTITLE18=Waymore Clayton and Montana Band - Looking for the Dream
TTITLE19=Highway Shadows - We like to drink our Beer
EXTD=
EXTT0=
EXTT1=
EXTT2=
EXTT3=
EXTT4=
EXTT5=
EXTT6=
EXTT7=
EXTT8=
EXTT9=
EXTT10=
EXTT11=
EXTT12=
EXTT13=
EXTT14=
EXTT15=
EXTT16=
EXTT17=
EXTT18=
EXTT19=
PLAYORDER=
